<mxfile host="app.diagrams.net" modified="2023-12-26T19:45:59.979Z" agent="Mozilla/5.0 (Windows NT 10.0; Win64; x64) AppleWebKit/537.36 (KHTML, like Gecko) Chrome/120.0.0.0 Safari/537.36" etag="ppOTlVwm809bn6R84OY3" version="22.1.11" type="device">
  <diagram name="Страница — 1" id="cPP6veus3DMomkcGuZE4">
    <mxGraphModel dx="875" dy="464" grid="1" gridSize="10" guides="1" tooltips="1" connect="1" arrows="1" fold="1" page="1" pageScale="1" pageWidth="827" pageHeight="1169" math="0" shadow="0">
      <root>
        <mxCell id="0" />
        <mxCell id="1" parent="0" />
        <mxCell id="6sTK9gCfuNqyJ2EaytwP-7" value="" style="edgeStyle=orthogonalEdgeStyle;rounded=0;orthogonalLoop=1;jettySize=auto;html=1;" edge="1" parent="1" source="6sTK9gCfuNqyJ2EaytwP-1" target="6sTK9gCfuNqyJ2EaytwP-2">
          <mxGeometry relative="1" as="geometry" />
        </mxCell>
        <mxCell id="6sTK9gCfuNqyJ2EaytwP-8" value="" style="edgeStyle=orthogonalEdgeStyle;rounded=0;orthogonalLoop=1;jettySize=auto;html=1;" edge="1" parent="1" source="6sTK9gCfuNqyJ2EaytwP-1" target="6sTK9gCfuNqyJ2EaytwP-6">
          <mxGeometry relative="1" as="geometry" />
        </mxCell>
        <mxCell id="6sTK9gCfuNqyJ2EaytwP-9" value="" style="edgeStyle=orthogonalEdgeStyle;rounded=0;orthogonalLoop=1;jettySize=auto;html=1;" edge="1" parent="1" source="6sTK9gCfuNqyJ2EaytwP-1" target="6sTK9gCfuNqyJ2EaytwP-5">
          <mxGeometry relative="1" as="geometry" />
        </mxCell>
        <mxCell id="6sTK9gCfuNqyJ2EaytwP-10" style="edgeStyle=orthogonalEdgeStyle;rounded=0;orthogonalLoop=1;jettySize=auto;html=1;entryX=0.5;entryY=0;entryDx=0;entryDy=0;" edge="1" parent="1" source="6sTK9gCfuNqyJ2EaytwP-1" target="6sTK9gCfuNqyJ2EaytwP-3">
          <mxGeometry relative="1" as="geometry">
            <Array as="points">
              <mxPoint x="380" y="350" />
              <mxPoint x="300" y="350" />
            </Array>
          </mxGeometry>
        </mxCell>
        <mxCell id="6sTK9gCfuNqyJ2EaytwP-11" style="edgeStyle=orthogonalEdgeStyle;rounded=0;orthogonalLoop=1;jettySize=auto;html=1;" edge="1" parent="1" source="6sTK9gCfuNqyJ2EaytwP-1" target="6sTK9gCfuNqyJ2EaytwP-4">
          <mxGeometry relative="1" as="geometry">
            <Array as="points">
              <mxPoint x="460" y="350" />
              <mxPoint x="540" y="350" />
            </Array>
          </mxGeometry>
        </mxCell>
        <mxCell id="6sTK9gCfuNqyJ2EaytwP-1" value="Типы девиантов" style="rounded=1;whiteSpace=wrap;html=1;" vertex="1" parent="1">
          <mxGeometry x="360" y="250" width="120" height="60" as="geometry" />
        </mxCell>
        <mxCell id="6sTK9gCfuNqyJ2EaytwP-2" value="Конформисты" style="rounded=1;whiteSpace=wrap;html=1;" vertex="1" parent="1">
          <mxGeometry x="160" y="250" width="120" height="60" as="geometry" />
        </mxCell>
        <mxCell id="6sTK9gCfuNqyJ2EaytwP-3" value="Инноватор" style="rounded=1;whiteSpace=wrap;html=1;" vertex="1" parent="1">
          <mxGeometry x="240" y="390" width="120" height="60" as="geometry" />
        </mxCell>
        <mxCell id="6sTK9gCfuNqyJ2EaytwP-4" value="Ритуалист" style="rounded=1;whiteSpace=wrap;html=1;" vertex="1" parent="1">
          <mxGeometry x="480" y="390" width="120" height="60" as="geometry" />
        </mxCell>
        <mxCell id="6sTK9gCfuNqyJ2EaytwP-5" value="Ретреат" style="rounded=1;whiteSpace=wrap;html=1;" vertex="1" parent="1">
          <mxGeometry x="560" y="250" width="120" height="60" as="geometry" />
        </mxCell>
        <mxCell id="6sTK9gCfuNqyJ2EaytwP-6" value="Бунтарь" style="rounded=1;whiteSpace=wrap;html=1;" vertex="1" parent="1">
          <mxGeometry x="360" y="110" width="120" height="60" as="geometry" />
        </mxCell>
      </root>
    </mxGraphModel>
  </diagram>
</mxfile>
